# xmcd
#
# Track frame offsets:
#	150
#	16637
#	35351
#	54421
#	68986
#	83115
#	107970
#	127708
#	141981
#	161791
#
# Disc length: 2332 seconds
#
# Revision: 0
# Processed by: cddbd v1.5.2PL0 Copyright (c) Steve Scherf et al.
# Submitted via: audiograbber 1.83.01
#
DISCID=7d091a0a
DTITLE=Black River Bluesman - Not a Dog-gone Thing
DYEAR=2003
DGENRE=Blues
TTITLE0=Messin' with the Hook
TTITLE1=Burnin' off Ticks
TTITLE2=Gone for Good
TTITLE3=Two Cats' Blues
TTITLE4=Mr. Weatherman
TTITLE5=Krong Theep Bar Blues
TTITLE6=Hair of the Dog
TTITLE7=Trouble
TTITLE8=All them Blues
TTITLE9=Not a Dog-gone Thing
EXTD=
EXTT0=
EXTT1=
EXTT2=
EXTT3=
EXTT4=
EXTT5=
EXTT6=
EXTT7=
EXTT8=
EXTT9=
PLAYORDER=
